<svg width="25" height="25" viewBox="0 0 25 25" fill="none" xmlns="http://www.w3.org/2000/svg">
<g clip-path="url(#clip0_6581_2375)">
<path d="M8.33366 22.1673C8.83992 22.1673 9.25033 21.7569 9.25033 21.2507C9.25033 20.7444 8.83992 20.334 8.33366 20.334C7.8274 20.334 7.41699 20.7444 7.41699 21.2507C7.41699 21.7569 7.8274 22.1673 8.33366 22.1673Z" stroke="#272727" stroke-width="1.83333" stroke-linecap="round" stroke-linejoin="round"/>
<path d="M18.4167 22.1673C18.9229 22.1673 19.3333 21.7569 19.3333 21.2507C19.3333 20.7444 18.9229 20.334 18.4167 20.334C17.9104 20.334 17.5 20.7444 17.5 21.2507C17.5 21.7569 17.9104 22.1673 18.4167 22.1673Z" stroke="#272727" stroke-width="1.83333" stroke-linecap="round" stroke-linejoin="round"/>
<path d="M2.87891 3.87988H4.71224L7.15057 15.2649C7.24002 15.6818 7.47202 16.0546 7.80664 16.3189C8.14126 16.5833 8.55757 16.7227 8.98391 16.7132H17.9489C18.3662 16.7125 18.7707 16.5696 19.0957 16.3079C19.4207 16.0462 19.6467 15.6815 19.7364 15.274L21.2489 8.46322H5.69307" stroke="#272727" stroke-width="1.83333" stroke-linecap="round" stroke-linejoin="round"/>
</g>
<defs>
<clipPath id="clip0_6581_2375">
<rect width="22" height="22" fill="white" transform="translate(1 2)"/>
</clipPath>
</defs>
</svg>
